<mxfile host="app.diagrams.net" modified="2023-04-04T08:46:44.638Z" agent="Mozilla/5.0 (Windows NT 10.0; Win64; x64) AppleWebKit/537.36 (KHTML, like Gecko) Chrome/110.0.0.0 YaBrowser/23.3.0.2246 Yowser/2.5 Safari/537.36" etag="EStWLuzloXW8WDYvc3dt" version="21.1.1" type="github">
  <diagram name="Страница 1" id="EsboAgLtxomguT8HKp5p">
    <mxGraphModel dx="1386" dy="791" grid="1" gridSize="10" guides="1" tooltips="1" connect="1" arrows="1" fold="1" page="1" pageScale="1" pageWidth="827" pageHeight="1169" math="0" shadow="0">
      <root>
        <mxCell id="0" />
        <mxCell id="1" parent="0" />
        <mxCell id="Nh3k_foeItMaIR8n8Rm3-1" value="Покупатель" style="shape=umlActor;verticalLabelPosition=bottom;verticalAlign=top;html=1;outlineConnect=0;" parent="1" vertex="1">
          <mxGeometry x="140" y="130" width="30" height="60" as="geometry" />
        </mxCell>
        <mxCell id="Nh3k_foeItMaIR8n8Rm3-3" style="edgeStyle=orthogonalEdgeStyle;rounded=0;orthogonalLoop=1;jettySize=auto;html=1;exitX=0;exitY=0.5;exitDx=0;exitDy=0;endArrow=none;endFill=0;" parent="1" source="Nh3k_foeItMaIR8n8Rm3-2" target="Nh3k_foeItMaIR8n8Rm3-1" edge="1">
          <mxGeometry relative="1" as="geometry" />
        </mxCell>
        <mxCell id="Nh3k_foeItMaIR8n8Rm3-14" style="rounded=0;orthogonalLoop=1;jettySize=auto;html=1;exitX=0;exitY=1;exitDx=0;exitDy=0;entryX=0.5;entryY=0;entryDx=0;entryDy=0;endArrow=open;endFill=0;dashed=1;" parent="1" source="Nh3k_foeItMaIR8n8Rm3-2" target="Nh3k_foeItMaIR8n8Rm3-4" edge="1">
          <mxGeometry relative="1" as="geometry" />
        </mxCell>
        <mxCell id="Nh3k_foeItMaIR8n8Rm3-17" style="rounded=0;orthogonalLoop=1;jettySize=auto;html=1;exitX=1;exitY=0.5;exitDx=0;exitDy=0;endArrow=open;endFill=0;" parent="1" source="Nh3k_foeItMaIR8n8Rm3-2" target="Nh3k_foeItMaIR8n8Rm3-13" edge="1">
          <mxGeometry relative="1" as="geometry" />
        </mxCell>
        <mxCell id="Nh3k_foeItMaIR8n8Rm3-2" value="Сайт -&lt;br&gt;Афиша билетов" style="ellipse;whiteSpace=wrap;html=1;" parent="1" vertex="1">
          <mxGeometry x="300" y="120" width="120" height="80" as="geometry" />
        </mxCell>
        <mxCell id="Nh3k_foeItMaIR8n8Rm3-4" value="Поиск билетов" style="ellipse;whiteSpace=wrap;html=1;fillColor=#dae8fc;strokeColor=#6c8ebf;" parent="1" vertex="1">
          <mxGeometry x="170" y="270" width="120" height="80" as="geometry" />
        </mxCell>
        <mxCell id="Nh3k_foeItMaIR8n8Rm3-18" style="rounded=0;orthogonalLoop=1;jettySize=auto;html=1;exitX=0.5;exitY=0;exitDx=0;exitDy=0;entryX=0;entryY=1;entryDx=0;entryDy=0;endArrow=block;endFill=0;" parent="1" source="Nh3k_foeItMaIR8n8Rm3-5" target="Nh3k_foeItMaIR8n8Rm3-7" edge="1">
          <mxGeometry relative="1" as="geometry" />
        </mxCell>
        <mxCell id="Nh3k_foeItMaIR8n8Rm3-5" value="Выбор места" style="ellipse;whiteSpace=wrap;html=1;fillColor=#d5e8d4;strokeColor=#82b366;" parent="1" vertex="1">
          <mxGeometry x="250" y="390" width="120" height="80" as="geometry" />
        </mxCell>
        <mxCell id="Nh3k_foeItMaIR8n8Rm3-6" value="Бронирование" style="ellipse;whiteSpace=wrap;html=1;fillColor=#ffe6cc;strokeColor=#d79b00;" parent="1" vertex="1">
          <mxGeometry x="363" y="520" width="120" height="80" as="geometry" />
        </mxCell>
        <mxCell id="Nh3k_foeItMaIR8n8Rm3-7" value="Покупка билетов" style="ellipse;whiteSpace=wrap;html=1;fillColor=#d5e8d4;strokeColor=#82b366;" parent="1" vertex="1">
          <mxGeometry x="350" y="270" width="120" height="80" as="geometry" />
        </mxCell>
        <mxCell id="Nh3k_foeItMaIR8n8Rm3-8" value="Корзина" style="ellipse;whiteSpace=wrap;html=1;fillColor=#ffe6cc;strokeColor=#d79b00;" parent="1" vertex="1">
          <mxGeometry x="460" y="390" width="120" height="80" as="geometry" />
        </mxCell>
        <mxCell id="Nh3k_foeItMaIR8n8Rm3-9" value="Оплата" style="ellipse;whiteSpace=wrap;html=1;fillColor=#ffe6cc;strokeColor=#d79b00;" parent="1" vertex="1">
          <mxGeometry x="560" y="520" width="120" height="80" as="geometry" />
        </mxCell>
        <mxCell id="Nh3k_foeItMaIR8n8Rm3-10" value="Личный кабинет" style="ellipse;whiteSpace=wrap;html=1;fillColor=#f8cecc;strokeColor=#b85450;" parent="1" vertex="1">
          <mxGeometry x="520" y="270" width="120" height="80" as="geometry" />
        </mxCell>
        <mxCell id="Nh3k_foeItMaIR8n8Rm3-11" value="Бонусная система" style="ellipse;whiteSpace=wrap;html=1;fillColor=#e51400;strokeColor=#B20000;fontColor=#ffffff;" parent="1" vertex="1">
          <mxGeometry x="560" y="20" width="120" height="80" as="geometry" />
        </mxCell>
        <mxCell id="Nh3k_foeItMaIR8n8Rm3-13" value="Продавец билетов" style="shape=umlActor;verticalLabelPosition=bottom;verticalAlign=top;html=1;outlineConnect=0;" parent="1" vertex="1">
          <mxGeometry x="690" y="170" width="30" height="60" as="geometry" />
        </mxCell>
        <mxCell id="Nh3k_foeItMaIR8n8Rm3-23" style="rounded=0;orthogonalLoop=1;jettySize=auto;html=1;exitX=0.5;exitY=1;exitDx=0;exitDy=0;entryX=0.5;entryY=0;entryDx=0;entryDy=0;endArrow=open;endFill=0;dashed=1;" parent="1" source="Nh3k_foeItMaIR8n8Rm3-2" target="Nh3k_foeItMaIR8n8Rm3-7" edge="1">
          <mxGeometry relative="1" as="geometry">
            <mxPoint x="370" y="200" as="sourcePoint" />
            <mxPoint x="282" y="282" as="targetPoint" />
          </mxGeometry>
        </mxCell>
        <mxCell id="Nh3k_foeItMaIR8n8Rm3-24" style="rounded=0;orthogonalLoop=1;jettySize=auto;html=1;exitX=1;exitY=1;exitDx=0;exitDy=0;entryX=0.5;entryY=0;entryDx=0;entryDy=0;endArrow=open;endFill=0;dashed=1;" parent="1" source="Nh3k_foeItMaIR8n8Rm3-2" target="Nh3k_foeItMaIR8n8Rm3-10" edge="1">
          <mxGeometry relative="1" as="geometry">
            <mxPoint x="538" y="170" as="sourcePoint" />
            <mxPoint x="450" y="252" as="targetPoint" />
          </mxGeometry>
        </mxCell>
        <mxCell id="Nh3k_foeItMaIR8n8Rm3-25" style="rounded=0;orthogonalLoop=1;jettySize=auto;html=1;exitX=0.5;exitY=0;exitDx=0;exitDy=0;entryX=1;entryY=1;entryDx=0;entryDy=0;endArrow=block;endFill=0;" parent="1" source="Nh3k_foeItMaIR8n8Rm3-8" target="Nh3k_foeItMaIR8n8Rm3-7" edge="1">
          <mxGeometry relative="1" as="geometry">
            <mxPoint x="395" y="412" as="sourcePoint" />
            <mxPoint x="453" y="360" as="targetPoint" />
          </mxGeometry>
        </mxCell>
        <mxCell id="Nh3k_foeItMaIR8n8Rm3-27" style="rounded=0;orthogonalLoop=1;jettySize=auto;html=1;exitX=0.5;exitY=0;exitDx=0;exitDy=0;entryX=0;entryY=1;entryDx=0;entryDy=0;endArrow=block;endFill=0;" parent="1" source="Nh3k_foeItMaIR8n8Rm3-6" target="Nh3k_foeItMaIR8n8Rm3-8" edge="1">
          <mxGeometry relative="1" as="geometry">
            <mxPoint x="478" y="512" as="sourcePoint" />
            <mxPoint x="410" y="460" as="targetPoint" />
          </mxGeometry>
        </mxCell>
        <mxCell id="Nh3k_foeItMaIR8n8Rm3-28" style="rounded=0;orthogonalLoop=1;jettySize=auto;html=1;exitX=0.5;exitY=0;exitDx=0;exitDy=0;entryX=1;entryY=1;entryDx=0;entryDy=0;endArrow=block;endFill=0;" parent="1" source="Nh3k_foeItMaIR8n8Rm3-9" target="Nh3k_foeItMaIR8n8Rm3-8" edge="1">
          <mxGeometry relative="1" as="geometry">
            <mxPoint x="510" y="542" as="sourcePoint" />
            <mxPoint x="565" y="480" as="targetPoint" />
          </mxGeometry>
        </mxCell>
        <mxCell id="Nh3k_foeItMaIR8n8Rm3-29" style="rounded=0;orthogonalLoop=1;jettySize=auto;html=1;exitX=0;exitY=0.5;exitDx=0;exitDy=0;entryX=1;entryY=0;entryDx=0;entryDy=0;endArrow=open;endFill=0;dashed=1;" parent="1" source="Nh3k_foeItMaIR8n8Rm3-11" target="Nh3k_foeItMaIR8n8Rm3-2" edge="1">
          <mxGeometry relative="1" as="geometry">
            <mxPoint x="390" y="-22" as="sourcePoint" />
            <mxPoint x="568" y="60" as="targetPoint" />
          </mxGeometry>
        </mxCell>
      </root>
    </mxGraphModel>
  </diagram>
</mxfile>
